<?xml version="1.0" standalone="no"?>
<!DOCTYPE svg PUBLIC "-//W3C//DTD SVG 20010904//EN"
 "http://www.w3.org/TR/2001/REC-SVG-20010904/DTD/svg10.dtd">
<svg version="1.0" xmlns="http://www.w3.org/2000/svg"
 width="1558.000000pt" height="434.000000pt" viewBox="0 0 1558.000000 434.000000"
 preserveAspectRatio="xMidYMid meet">
<metadata>
Created by potrace 1.16, written by Peter Selinger 2001-2019
</metadata>
<g transform="translate(0.000000,434.000000) scale(0.100000,-0.100000)"
fill="#000000" stroke="none">
<path d="M14765 4101 c-83 -15 -155 -77 -175 -153 -14 -50 -2 -83 34 -100 36
-16 76 12 76 52 0 31 -22 60 -46 60 -47 0 34 81 100 100 160 44 268 -114 190
-280 -19 -42 -65 -95 -196 -227 -120 -121 -169 -176 -165 -187 6 -14 36 -16
237 -16 126 0 230 1 230 3 0 1 7 40 15 87 19 110 19 122 -2 118 -11 -2 -20
-18 -25 -42 -14 -66 -15 -66 -179 -66 -82 0 -149 3 -149 8 0 8 70 70 160 141
95 76 172 154 191 196 20 43 25 128 10 168 -16 40 -68 94 -114 115 -48 22
-134 32 -192 23z"/>
<path d="M6115 3852 c-31 -6 -56 -33 -81 -87 -27 -57 -31 -95 -10 -95 9 0 21
22 31 53 10 28 24 62 31 75 25 39 84 23 84 -22 0 -12 -21 -108 -47 -214 -46
-189 -47 -194 -28 -208 10 -8 22 -14 27 -14 26 0 48 48 77 171 18 74 40 147
48 164 47 90 119 145 192 145 83 0 90 -68 26 -254 -41 -122 -43 -155 -12 -184
40 -37 76 -45 123 -27 73 28 159 175 103 175 -5 0 -21 -25 -35 -55 -31 -65
-67 -97 -103 -93 -39 5 -37 33 9 167 42 124 51 190 31 239 -36 88 -208 86
-290 -2 -27 -29 -41 -33 -41 -12 0 43 -81 89 -135 78z"/>
<path d="M4337 3743 c-4 -3 -7 -13 -7 -22 0 -9 133 -198 295 -421 162 -223
295 -408 295 -411 0 -4 -130 -168 -290 -365 -159 -198 -290 -367 -290 -377 0
-16 38 -17 692 -15 l691 3 68 198 c62 179 67 197 49 197 -14 0 -28 -16 -46
-52 -36 -71 -111 -140 -197 -183 -128 -63 -169 -67 -669 -72 -247 -3 -448 -1
-448 4 0 4 126 163 280 353 154 190 279 352 280 361 0 9 -117 177 -260 374
-143 197 -260 362 -260 366 0 12 705 11 810 -1 235 -27 381 -107 467 -255 28
-47 62 -69 55 -35 -1 8 -31 93 -65 187 l-62 173 -691 0 c-380 0 -694 -3 -697
-7z"/>
<path d="M8835 3667 c-144 -148 -222 -327 -252 -574 -36 -287 21 -557 161
-767 52 -78 163 -196 185 -196 26 0 17 23 -30 77 -152 173 -217 368 -226 683
-11 361 56 590 233 794 41 47 47 66 21 66 -7 0 -48 -37 -92 -83z"/>
<path d="M13980 3740 c0 -6 22 -38 49 -70 136 -163 201 -346 220 -616 24 -353
-56 -653 -226 -849 -43 -50 -54 -75 -31 -75 22 0 172 164 211 230 206 354 192
879 -33 1211 -72 105 -190 210 -190 169z"/>
<path d="M9373 3624 c-8 -22 14 -34 65 -34 24 0 52 -4 62 -10 11 -6 58 -104
120 -250 l103 -241 -35 -37 c-19 -20 -97 -104 -173 -186 -226 -243 -249 -259
-387 -281 -29 -5 -38 -11 -38 -25 0 -11 3 -20 8 -20 198 -3 352 -1 361 4 20
13 11 36 -16 42 -40 10 -53 23 -53 54 0 20 25 54 108 141 59 63 137 147 174
187 36 40 69 69 71 65 3 -4 42 -96 87 -203 60 -142 80 -199 73 -210 -6 -8 -33
-21 -62 -29 -38 -10 -51 -19 -51 -32 0 -11 5 -19 10 -19 6 -1 98 -1 205 -1
107 0 200 0 205 1 6 0 10 8 10 19 0 21 -26 31 -81 31 -23 0 -42 7 -53 19 -15
16 -210 464 -230 529 -6 18 19 50 154 195 203 218 224 232 388 263 14 3 22 12
22 24 0 20 -6 20 -187 18 -176 -3 -188 -4 -188 -22 0 -12 12 -22 35 -30 27 -8
36 -17 38 -38 3 -22 -12 -44 -77 -115 -164 -181 -209 -228 -214 -223 -10 10
-137 319 -137 333 0 20 19 34 55 42 59 13 65 17 65 36 0 18 -9 19 -215 19
-189 0 -216 -2 -222 -16z"/>
<path d="M13212 3232 c-13 -13 -57 -171 -143 -516 l-124 -498 22 -18 c27 -22
59 -16 78 14 8 11 32 92 53 179 22 87 42 160 45 163 2 2 24 -5 48 -16 57 -26
150 -26 204 -1 22 10 58 34 80 53 l39 35 16 -31 c22 -44 74 -76 126 -76 74 0
125 61 158 187 20 75 20 73 -3 73 -14 0 -22 -12 -30 -47 -30 -118 -84 -193
-130 -178 -49 15 -45 75 30 371 33 134 59 255 57 271 -3 30 -23 39 -63 29 -30
-8 -35 -22 -101 -289 -63 -253 -84 -298 -162 -348 -84 -53 -173 -45 -206 20
-28 54 -20 132 41 378 48 195 55 233 44 247 -18 21 -57 20 -79 -2z"/>
<path d="M11424 2955 c-4 -8 -4 -22 0 -30 5 -13 68 -15 485 -15 457 0 481 1
490 18 22 41 8 42 -491 42 -416 0 -479 -2 -484 -15z"/>
<path d="M1400 2831 c-81 -26 -142 -85 -160 -153 -14 -50 -2 -83 34 -100 36
-16 76 12 76 52 0 31 -22 60 -46 60 -47 0 34 81 100 100 160 44 268 -114 190
-280 -19 -42 -65 -95 -196 -227 -120 -121 -169 -176 -165 -187 6 -14 36 -16
237 -16 126 0 230 1 230 3 0 1 7 40 15 87 19 110 19 122 -2 118 -11 -2 -20
-18 -25 -42 -14 -66 -15 -66 -179 -66 -82 0 -149 3 -149 8 0 8 70 70 160 141
95 76 172 154 191 196 20 43 25 128 10 168 -16 41 -69 94 -117 117 -51 23
-162 35 -204 21z"/>
<path d="M7745 2790 c-13 -22 -89 -52 -149 -58 -44 -5 -61 -11 -61 -22 0 -17
75 -21 133 -6 l32 8 0 -300 c0 -232 -3 -302 -13 -310 -7 -6 -42 -12 -77 -14
-52 -2 -65 -6 -68 -20 -3 -17 12 -18 203 -18 191 0 206 1 203 18 -3 14 -16 18
-70 20 -39 2 -71 8 -77 16 -7 8 -12 129 -13 352 -3 306 -5 339 -20 342 -9 2
-19 -2 -23 -8z"/>
<path d="M10566 2779 c-54 -15 -126 -106 -126 -159 0 -35 27 -21 44 23 22 59
70 107 107 107 26 0 29 -3 29 -34 0 -19 -25 -98 -55 -176 -30 -78 -55 -156
-55 -174 0 -38 29 -70 78 -87 28 -9 39 -8 80 12 49 25 99 90 104 138 5 45 -21
32 -47 -23 -30 -64 -68 -98 -104 -94 -41 5 -37 43 15 175 68 173 75 198 63
232 -17 49 -78 76 -133 60z"/>
<path d="M6136 2539 c-54 -15 -126 -106 -126 -159 0 -35 27 -21 44 23 22 59
70 107 107 107 26 0 29 -3 29 -34 0 -19 -25 -98 -55 -176 -30 -78 -55 -156
-55 -174 0 -38 29 -70 78 -87 28 -9 39 -8 80 12 49 25 99 90 104 138 5 45 -21
32 -47 -23 -30 -64 -68 -98 -104 -94 -41 5 -37 43 15 175 68 173 75 198 63
232 -17 49 -78 76 -133 60z"/>
<path d="M6494 2465 c-3 -8 -3 -19 1 -25 4 -7 141 -10 416 -10 l409 0 0 25 0
25 -410 0 c-350 0 -411 -2 -416 -15z"/>
<path d="M6494 2215 c-3 -8 -3 -19 1 -25 4 -7 141 -10 416 -10 l409 0 0 25 0
25 -410 0 c-350 0 -411 -2 -416 -15z"/>
<path d="M528 2086 c-136 -56 -247 -193 -284 -352 -25 -112 0 -210 73 -275 52
-47 99 -62 182 -57 133 7 270 110 339 256 31 64 37 89 40 161 4 81 -1 110 -33
184 -7 16 2 17 98 17 87 0 109 3 127 18 18 14 22 25 16 45 l-6 27 -248 0
c-236 0 -250 -2 -304 -24z m178 -82 c51 -24 78 -89 71 -168 -8 -89 -51 -214
-95 -277 -42 -61 -120 -114 -183 -124 -77 -13 -150 48 -163 137 -8 53 14 172
46 252 59 149 211 233 324 180z"/>
<path d="M2441 1996 c-6 -7 -9 -21 -5 -30 6 -14 56 -16 535 -16 464 0 530 2
535 15 4 8 1 22 -6 30 -18 22 -1041 23 -1059 1z"/>
<path d="M4257 1853 c-4 -3 -7 -19 -7 -35 l0 -28 5495 0 5495 0 0 35 0 35
-5488 0 c-3019 0 -5492 -3 -5495 -7z"/>
<path d="M2458 1693 c-22 -6 -31 -32 -17 -49 10 -12 99 -14 532 -12 479 3 521
4 531 20 26 42 11 43 -522 44 -279 1 -514 0 -524 -3z"/>
<path d="M9410 994 c-36 -23 -65 -71 -89 -149 -25 -80 -26 -95 -6 -95 17 0 25
16 50 100 20 66 37 94 70 116 23 15 27 15 50 0 39 -26 33 -81 -42 -379 -71
-286 -72 -299 -20 -305 48 -6 61 21 116 254 29 120 62 238 74 262 24 48 96
126 137 147 48 25 115 36 148 24 73 -25 69 -130 -12 -373 -31 -93 -56 -178
-56 -188 0 -66 64 -128 133 -128 72 0 139 58 182 155 31 68 34 99 13 103 -11
2 -20 -8 -28 -35 -43 -131 -123 -213 -180 -183 -30 16 -26 63 21 195 61 175
82 254 82 321 1 78 -23 121 -83 152 -38 20 -56 23 -115 19 -83 -5 -133 -27
-192 -87 l-42 -41 -20 45 c-12 28 -33 53 -53 66 -39 24 -103 26 -138 4z"/>
</g>
</svg>
