<?xml version="1.0" standalone="no"?>
<!DOCTYPE svg PUBLIC "-//W3C//DTD SVG 20010904//EN"
 "http://www.w3.org/TR/2001/REC-SVG-20010904/DTD/svg10.dtd">
<svg version="1.0" xmlns="http://www.w3.org/2000/svg"
 width="300.000000pt" height="120.000000pt" viewBox="0 0 300.000000 120.000000"
 preserveAspectRatio="xMidYMid meet">
<metadata>
Created by potrace 1.10, written by Peter Selinger 2001-2011
</metadata>
<g transform="translate(0.000000,120.000000) scale(0.100000,-0.100000)"
fill="#000000" stroke="none">
<path d="M2073 1153 c-597 -2 -913 -7 -913 -13 0 -7 315 -10 915 -10 807 0
915 2 915 15 0 8 -1 14 -2 13 -2 -2 -414 -4 -915 -5z"/>
<path d="M1126 1068 c-11 -139 -36 -434 -52 -604 -7 -89 -14 -183 -14 -209 0
-27 -2 -46 -4 -44 -4 4 -66 357 -66 376 0 4 -11 -5 -25 -22 -13 -16 -24 -37
-24 -45 0 -11 3 -10 14 4 8 11 16 18 18 15 4 -6 68 -401 67 -421 0 -10 4 -18
9 -18 4 0 11 30 15 68 8 86 53 598 66 762 6 69 13 146 15 173 3 26 2 47 -3 47
-5 0 -12 -37 -16 -82z"/>
<path d="M1240 1053 c0 -5 43 -59 96 -121 l95 -113 -96 -119 c-52 -65 -95
-121 -95 -124 0 -3 86 -6 190 -6 l190 0 0 28 c0 15 4 42 9 60 11 38 -5 45 -19
8 -15 -39 -40 -46 -180 -46 l-131 0 90 111 89 112 -80 96 -79 96 110 3 c124 3
144 -3 165 -51 l14 -32 1 53 1 52 -185 0 c-102 0 -185 -3 -185 -7z"/>
<path d="M2842 1018 c-7 -7 -12 -19 -12 -27 0 -12 3 -11 13 3 7 10 22 17 33
14 32 -6 27 -40 -11 -85 -19 -23 -35 -44 -35 -48 0 -3 21 -5 47 -3 39 2 49 7
51 23 3 16 1 18 -9 8 -7 -7 -24 -13 -37 -13 -23 0 -23 0 7 37 45 54 38 103
-14 103 -12 0 -26 -5 -33 -12z"/>
<path d="M2720 987 c0 -3 9 -21 19 -39 48 -80 48 -236 1 -316 -26 -43 -20 -53
9 -16 55 69 65 219 21 310 -19 37 -50 76 -50 61z"/>
<path d="M1810 948 c-32 -53 -43 -100 -39 -180 4 -73 38 -166 65 -175 6 -2 0
19 -13 46 -45 90 -40 254 8 315 11 14 16 26 10 26 -6 0 -20 -15 -31 -32z"/>
<path d="M2500 890 c0 -6 33 -10 80 -10 47 0 80 4 80 10 0 6 -33 10 -80 10
-47 0 -80 -4 -80 -10z"/>
<path d="M1935 841 c-3 -5 5 -11 17 -13 37 -5 47 -52 21 -96 -11 -21 -29 -37
-40 -38 -34 -2 -37 -4 -26 -15 17 -17 49 -2 72 34 l20 32 7 -33 c4 -19 13 -36
21 -39 15 -6 53 23 53 40 0 6 -9 2 -19 -7 -19 -17 -20 -17 -30 21 -6 21 -11
43 -11 49 0 16 34 44 53 44 23 0 31 19 12 26 -10 4 -27 -4 -44 -20 l-28 -27
-7 25 c-5 21 -13 26 -36 26 -16 0 -31 -4 -35 -9z"/>
<path d="M2490 841 c0 -5 10 -11 22 -13 15 -2 24 -13 30 -36 8 -29 5 -39 -16
-67 -19 -24 -31 -32 -46 -28 -14 4 -20 0 -20 -11 0 -29 37 -17 69 22 29 36 30
36 31 12 0 -14 4 -31 9 -39 11 -17 48 -6 61 20 13 24 2 25 -16 2 -12 -17 -13
-16 -22 8 -24 62 -10 109 33 109 16 0 25 6 25 15 0 24 -37 17 -59 -11 l-21
-26 -10 26 c-7 20 -16 26 -40 26 -16 0 -30 -4 -30 -9z"/>
<path d="M2170 790 c0 -6 47 -10 120 -10 73 0 120 4 120 10 0 6 -47 10 -120
10 -73 0 -120 -4 -120 -10z"/>
<path d="M293 662 c-9 -14 -13 -15 -24 -4 -20 19 -83 15 -102 -6 -29 -32 -21
-69 28 -129 51 -62 54 -74 24 -104 -15 -15 -28 -19 -47 -14 -37 9 -45 19 -44
55 1 46 -13 36 -24 -17 l-9 -48 63 -2 c55 -3 66 0 87 22 39 38 33 75 -20 135
-51 57 -56 85 -20 102 33 15 75 -12 75 -47 0 -44 17 -27 23 23 6 54 5 57 -10
34z"/>
<path d="M353 664 c23 -7 21 -31 -12 -149 -22 -80 -32 -102 -52 -112 -43 -23
127 -17 176 6 82 37 123 124 91 193 -23 49 -50 61 -141 64 -44 2 -72 1 -62 -2z
m137 -24 c61 -32 40 -179 -30 -215 -28 -15 -110 -21 -110 -9 0 4 14 58 31 120
31 112 32 114 61 114 16 0 38 -4 48 -10z"/>
<path d="M650 558 c0 -10 30 -13 115 -13 85 0 115 3 115 13 0 9 -30 12 -115
12 -85 0 -115 -3 -115 -12z"/>
<path d="M1200 500 c0 -7 303 -10 890 -10 587 0 890 3 890 10 0 7 -303 10
-890 10 -587 0 -890 -3 -890 -10z"/>
<path d="M650 473 c0 -10 30 -13 115 -13 85 0 115 3 115 13 0 9 -30 12 -115
12 -85 0 -115 -3 -115 -12z"/>
<path d="M1710 390 c0 -5 8 -10 18 -10 29 0 31 -8 17 -53 -8 -23 -23 -75 -35
-114 -13 -46 -26 -73 -35 -73 -8 0 -17 -4 -20 -10 -4 -6 12 -10 39 -10 25 0
46 5 46 10 0 6 -7 10 -15 10 -8 0 -15 2 -15 5 0 4 41 151 53 189 2 4 20 -36
40 -90 55 -144 54 -142 60 -124 3 8 20 69 38 134 25 89 37 120 51 124 34 9 18
22 -27 22 -25 0 -45 -4 -45 -10 0 -5 7 -10 15 -10 20 0 19 -10 -9 -110 -21
-76 -25 -82 -34 -60 -5 14 -24 62 -42 108 -31 81 -32 82 -66 82 -19 0 -34 -4
-34 -10z"/>
<path d="M2418 382 c-40 -15 -53 -34 -18 -25 19 5 20 0 20 -106 0 -106 -1
-112 -22 -121 -18 -7 -9 -9 36 -9 50 -1 57 1 43 12 -14 10 -17 34 -19 137 l-3
126 -37 -14z"/>
<path d="M2060 240 c0 -6 45 -10 115 -10 70 0 115 4 115 10 0 6 -45 10 -115
10 -70 0 -115 -4 -115 -10z"/>
</g>
</svg>
